<mxfile host="drawio-plugin" modified="2023-06-21T20:59:22.990Z" agent="5.0 (Windows NT 6.2; Win64; x64) AppleWebKit/537.36 (KHTML, like Gecko) Chrome/89.0.4389.114 Safari/537.36" etag="NNbY28omKjzRMnyW2eHM" version="20.5.3" type="embed"><diagram id="23iRSUPoRavnBvh4doch" name="Page-1"><mxGraphModel dx="1515" dy="495" grid="1" gridSize="10" guides="1" tooltips="1" connect="1" arrows="1" fold="1" page="1" pageScale="1" pageWidth="827" pageHeight="1169" math="0" shadow="0"><root><mxCell id="0"/><mxCell id="1" parent="0"/><mxCell id="19" value="" style="rounded=0;whiteSpace=wrap;html=1;" parent="1" vertex="1"><mxGeometry x="-825" y="450" width="805" height="1140" as="geometry"/></mxCell><mxCell id="90" value="" style="rounded=0;whiteSpace=wrap;html=1;" parent="1" vertex="1"><mxGeometry x="-819" y="1246" width="790" height="325" as="geometry"/></mxCell><mxCell id="26" value="" style="rounded=0;whiteSpace=wrap;html=1;" parent="1" vertex="1"><mxGeometry x="-820" y="565" width="790" height="325" as="geometry"/></mxCell><mxCell id="20" value="&lt;b&gt;Loop&lt;/b&gt;" style="rounded=0;whiteSpace=wrap;html=1;" parent="1" vertex="1"><mxGeometry x="-825" y="450" width="70" height="30" as="geometry"/></mxCell><mxCell id="5" value="&lt;span style=&quot;background-color: rgb(248, 249, 250);&quot;&gt;1.1.1.13:&lt;br&gt;updateDelivery(delivery, &quot;Status&quot;)&lt;br&gt;&lt;/span&gt;" style="html=1;verticalAlign=bottom;startArrow=none;endArrow=block;startSize=8;edgeStyle=elbowEdgeStyle;elbow=vertical;curved=0;rounded=0;startFill=0;" parent="1" target="56" edge="1"><mxGeometry x="-0.0131" relative="1" as="geometry"><mxPoint x="-820" y="332" as="sourcePoint"/><Array as="points"><mxPoint x="-680" y="332"/><mxPoint x="-700" y="334"/><mxPoint x="-770" y="333"/><mxPoint x="-660" y="333"/><mxPoint x="-640" y="323"/><mxPoint x="110" y="323"/><mxPoint x="50" y="323"/><mxPoint x="160" y="343"/><mxPoint x="130" y="363"/></Array><mxPoint as="offset"/><mxPoint x="-644" y="332" as="targetPoint"/></mxGeometry></mxCell><mxCell id="6" value="* All calls come from delivery controller" style="text;html=1;align=center;verticalAlign=middle;whiteSpace=wrap;rounded=0;" parent="1" vertex="1"><mxGeometry x="-827" y="20" width="103" height="30" as="geometry"/></mxCell><mxCell id="7" value="* Still inside 4 top alts" style="text;html=1;align=center;verticalAlign=middle;whiteSpace=wrap;rounded=0;" parent="1" vertex="1"><mxGeometry x="-820" y="60" width="103" height="30" as="geometry"/></mxCell><mxCell id="9" value="&lt;span style=&quot;background-color: rgb(248, 249, 250);&quot;&gt;1.1.1.14:&lt;br&gt;updateDelivery(delivery, &quot;MaxWeight&quot;)&lt;br&gt;&lt;/span&gt;" style="html=1;verticalAlign=bottom;startArrow=none;endArrow=block;startSize=8;edgeStyle=elbowEdgeStyle;elbow=vertical;curved=0;rounded=0;startFill=0;" parent="1" edge="1"><mxGeometry x="-0.0568" relative="1" as="geometry"><mxPoint x="-816" y="405" as="sourcePoint"/><Array as="points"><mxPoint x="-716" y="405"/><mxPoint x="-806" y="405"/><mxPoint x="-766" y="406"/><mxPoint x="-656" y="406"/><mxPoint x="-636" y="396"/><mxPoint x="114" y="396"/><mxPoint x="54" y="396"/><mxPoint x="164" y="416"/><mxPoint x="134" y="436"/></Array><mxPoint as="offset"/><mxPoint x="-640" y="405" as="targetPoint"/></mxGeometry></mxCell><mxCell id="12" value="&lt;span style=&quot;background-color: rgb(248, 249, 250);&quot;&gt;1.1.1.13.1:&lt;br&gt;update(id,&quot;Status&quot;,status)&lt;br&gt;&lt;/span&gt;" style="html=1;verticalAlign=bottom;startArrow=none;endArrow=block;startSize=8;edgeStyle=elbowEdgeStyle;elbow=vertical;curved=0;rounded=0;startFill=0;" parent="1" edge="1"><mxGeometry x="0.6061" y="-1" relative="1" as="geometry"><mxPoint x="-634" y="338.9999999999999" as="sourcePoint"/><Array as="points"><mxPoint x="-326" y="339"/><mxPoint x="-346" y="341"/><mxPoint x="-416" y="340"/><mxPoint x="-306" y="340"/><mxPoint x="-286" y="330"/><mxPoint x="464" y="330"/><mxPoint x="404" y="330"/><mxPoint x="514" y="350"/><mxPoint x="484" y="370"/></Array><mxPoint as="offset"/><mxPoint x="-243" y="338.9999999999999" as="targetPoint"/></mxGeometry></mxCell><mxCell id="13" value="return" style="html=1;verticalAlign=bottom;endArrow=open;dashed=1;endSize=8;edgeStyle=elbowEdgeStyle;elbow=vertical;curved=0;rounded=0;" parent="1" edge="1"><mxGeometry x="-0.6061" relative="1" as="geometry"><mxPoint x="-634" y="365.65999999999997" as="targetPoint"/><Array as="points"><mxPoint x="-336" y="365.65999999999997"/><mxPoint x="-385" y="435.65999999999997"/><mxPoint x="-390" y="340.61"/><mxPoint x="-440" y="220.60999999999999"/><mxPoint x="-350" y="160.28"/><mxPoint x="-340" y="160.28"/><mxPoint x="-410" y="140.75000000000003"/><mxPoint x="-365" y="100.74999999999997"/><mxPoint x="-345" y="110.74999999999997"/></Array><mxPoint x="-243" y="365.65999999999997" as="sourcePoint"/><mxPoint as="offset"/></mxGeometry></mxCell><mxCell id="14" value="return" style="html=1;verticalAlign=bottom;endArrow=open;dashed=1;endSize=8;edgeStyle=elbowEdgeStyle;elbow=vertical;curved=0;rounded=0;" parent="1" source="59" edge="1"><mxGeometry relative="1" as="geometry"><mxPoint x="-808" y="438" as="targetPoint"/><Array as="points"><mxPoint x="-714" y="438"/><mxPoint x="-763" y="508"/><mxPoint x="-768" y="412.95"/><mxPoint x="-818" y="292.95"/><mxPoint x="-728" y="232.62"/><mxPoint x="-718" y="232.62"/><mxPoint x="-788" y="213.09000000000003"/><mxPoint x="-743" y="173.08999999999997"/><mxPoint x="-723" y="183.08999999999997"/></Array><mxPoint x="-642.48" y="454.81999999999994" as="sourcePoint"/><mxPoint as="offset"/></mxGeometry></mxCell><mxCell id="15" value="&lt;span style=&quot;background-color: rgb(248, 249, 250);&quot;&gt;1.1.1.14.1:&lt;br&gt;update(id,&quot;MaxWeight&quot;,weight)&lt;br&gt;&lt;/span&gt;" style="html=1;verticalAlign=bottom;startArrow=none;endArrow=block;startSize=8;edgeStyle=elbowEdgeStyle;elbow=vertical;curved=0;rounded=0;startFill=0;" parent="1" target="58" edge="1"><mxGeometry x="0.559" relative="1" as="geometry"><mxPoint x="-634" y="405.9999999999999" as="sourcePoint"/><Array as="points"><mxPoint x="-330" y="406"/><mxPoint x="-350" y="408"/><mxPoint x="-420" y="407"/><mxPoint x="-310" y="407"/><mxPoint x="-290" y="397"/><mxPoint x="460" y="397"/><mxPoint x="400" y="397"/><mxPoint x="510" y="417"/><mxPoint x="480" y="437"/></Array><mxPoint as="offset"/><mxPoint x="-243" y="405.9999999999999" as="targetPoint"/></mxGeometry></mxCell><mxCell id="16" value="return" style="html=1;verticalAlign=bottom;endArrow=open;dashed=1;endSize=8;edgeStyle=elbowEdgeStyle;elbow=vertical;curved=0;rounded=0;" parent="1" source="58" target="59" edge="1"><mxGeometry x="-0.6103" relative="1" as="geometry"><mxPoint x="-640" y="439.0000000000001" as="targetPoint"/><Array as="points"><mxPoint x="-334" y="431"/><mxPoint x="-383" y="501"/><mxPoint x="-388" y="405.95"/><mxPoint x="-438" y="285.95"/><mxPoint x="-348" y="225.62"/><mxPoint x="-338" y="225.62"/><mxPoint x="-408" y="206.09000000000003"/><mxPoint x="-363" y="166.08999999999997"/><mxPoint x="-343" y="176.08999999999997"/></Array><mxPoint x="-245.00000000000023" y="431" as="sourcePoint"/><mxPoint as="offset"/></mxGeometry></mxCell><mxCell id="17" value="return" style="html=1;verticalAlign=bottom;endArrow=open;dashed=1;endSize=8;edgeStyle=elbowEdgeStyle;elbow=vertical;curved=0;rounded=0;" parent="1" edge="1"><mxGeometry relative="1" as="geometry"><mxPoint x="-810" y="373" as="targetPoint"/><Array as="points"><mxPoint x="-716" y="373"/><mxPoint x="-765" y="443"/><mxPoint x="-770" y="347.95"/><mxPoint x="-820" y="227.95"/><mxPoint x="-730" y="167.62"/><mxPoint x="-720" y="167.62"/><mxPoint x="-790" y="148.09000000000003"/><mxPoint x="-745" y="108.08999999999997"/><mxPoint x="-725" y="118.08999999999997"/></Array><mxPoint x="-644" y="373" as="sourcePoint"/><mxPoint as="offset"/></mxGeometry></mxCell><mxCell id="18" value="&lt;span style=&quot;background-color: rgb(248, 249, 250);&quot;&gt;1.1.1.15:&lt;br&gt;updateStop(stop,&quot;Status&quot;)&lt;br&gt;&lt;/span&gt;" style="html=1;verticalAlign=bottom;startArrow=none;endArrow=block;startSize=8;edgeStyle=elbowEdgeStyle;elbow=vertical;curved=0;rounded=0;startFill=0;" parent="1" edge="1"><mxGeometry x="-0.0131" relative="1" as="geometry"><mxPoint x="-820" y="512" as="sourcePoint"/><Array as="points"><mxPoint x="-680" y="512"/><mxPoint x="-700" y="514"/><mxPoint x="-770" y="513"/><mxPoint x="-660" y="513"/><mxPoint x="-640" y="503"/><mxPoint x="110" y="503"/><mxPoint x="50" y="503"/><mxPoint x="160" y="523"/><mxPoint x="130" y="543"/></Array><mxPoint as="offset"/><mxPoint x="-644" y="512" as="targetPoint"/></mxGeometry></mxCell><mxCell id="21" value="[for all stops&lt;br&gt;in delivery]" style="text;html=1;align=center;verticalAlign=middle;whiteSpace=wrap;rounded=0;" parent="1" vertex="1"><mxGeometry x="-769.9964365346535" y="450" width="110.42148514851485" height="34.55999999999999" as="geometry"/></mxCell><mxCell id="22" value="&lt;span style=&quot;background-color: rgb(248, 249, 250);&quot;&gt;1.1.1.15.1:&lt;br&gt;update(id,&quot;Status&quot;,status)&lt;br&gt;&lt;/span&gt;" style="html=1;verticalAlign=bottom;startArrow=none;endArrow=block;startSize=8;edgeStyle=elbowEdgeStyle;elbow=vertical;curved=0;rounded=0;startFill=0;" parent="1" source="61" edge="1"><mxGeometry x="0.5" relative="1" as="geometry"><mxPoint x="-399" y="525.9999999999999" as="sourcePoint"/><Array as="points"><mxPoint x="-317" y="526"/><mxPoint x="-337" y="528"/><mxPoint x="-407" y="527"/><mxPoint x="-297" y="527"/><mxPoint x="-277" y="517"/><mxPoint x="473" y="517"/><mxPoint x="413" y="517"/><mxPoint x="523" y="537"/><mxPoint x="493" y="557"/></Array><mxPoint as="offset"/><mxPoint x="-242" y="525.9999999999999" as="targetPoint"/></mxGeometry></mxCell><mxCell id="23" value="return" style="html=1;verticalAlign=bottom;endArrow=open;dashed=1;endSize=8;edgeStyle=elbowEdgeStyle;elbow=vertical;curved=0;rounded=0;" parent="1" target="61" edge="1"><mxGeometry x="-0.5464" relative="1" as="geometry"><mxPoint x="-399" y="543.9999999999999" as="targetPoint"/><Array as="points"><mxPoint x="-275" y="544"/><mxPoint x="-321" y="554"/><mxPoint x="-370" y="624"/><mxPoint x="-375" y="528.95"/><mxPoint x="-425" y="408.95"/><mxPoint x="-335" y="348.62"/><mxPoint x="-325" y="348.62"/><mxPoint x="-395" y="329.09000000000003"/><mxPoint x="-350" y="289.09"/><mxPoint x="-330" y="299.09"/></Array><mxPoint x="-242" y="543.9999999999999" as="sourcePoint"/><mxPoint as="offset"/></mxGeometry></mxCell><mxCell id="25" value="return" style="html=1;verticalAlign=bottom;endArrow=open;dashed=1;endSize=8;edgeStyle=elbowEdgeStyle;elbow=vertical;curved=0;rounded=0;exitX=0.152;exitY=0.423;exitDx=0;exitDy=0;exitPerimeter=0;" parent="1" edge="1"><mxGeometry relative="1" as="geometry"><mxPoint x="-808" y="553" as="targetPoint"/><Array as="points"><mxPoint x="-660" y="553"/><mxPoint x="-680" y="550"/><mxPoint x="-706" y="550"/><mxPoint x="-755" y="620"/><mxPoint x="-760" y="524.95"/><mxPoint x="-810" y="404.95"/><mxPoint x="-720" y="344.62"/><mxPoint x="-710" y="344.62"/><mxPoint x="-780" y="325.09000000000003"/><mxPoint x="-735" y="285.09"/><mxPoint x="-715" y="295.09"/></Array><mxPoint x="-642.48" y="553.02" as="sourcePoint"/><mxPoint as="offset"/></mxGeometry></mxCell><mxCell id="27" value="&lt;b&gt;Loop&lt;/b&gt;" style="rounded=0;whiteSpace=wrap;html=1;" parent="1" vertex="1"><mxGeometry x="-820" y="565" width="70" height="30" as="geometry"/></mxCell><mxCell id="28" value="[for all ItemDeliveries in stop load list]" style="text;html=1;align=center;verticalAlign=middle;whiteSpace=wrap;rounded=0;" parent="1" vertex="1"><mxGeometry x="-639.9964365346535" y="569" width="110.42148514851485" height="34.55999999999999" as="geometry"/></mxCell><mxCell id="31" value="&lt;span style=&quot;background-color: rgb(248, 249, 250);&quot;&gt;1.1.1.16:&lt;br&gt;updateItemDeliveryStatus(itemDelivery)&lt;br&gt;&lt;/span&gt;" style="html=1;verticalAlign=bottom;startArrow=none;endArrow=block;startSize=8;edgeStyle=elbowEdgeStyle;elbow=vertical;curved=0;rounded=0;startFill=0;" parent="1" edge="1"><mxGeometry x="0.1364" y="2" relative="1" as="geometry"><mxPoint x="-820" y="638" as="sourcePoint"/><Array as="points"><mxPoint x="-680" y="638"/><mxPoint x="-700" y="640"/><mxPoint x="-770" y="639"/><mxPoint x="-660" y="639"/><mxPoint x="-640" y="629"/><mxPoint x="110" y="629"/><mxPoint x="50" y="629"/><mxPoint x="160" y="649"/><mxPoint x="130" y="669"/></Array><mxPoint as="offset"/><mxPoint x="-644" y="637.9999999999999" as="targetPoint"/></mxGeometry></mxCell><mxCell id="32" value="* Loops part of delivery controller approveDelivery()" style="text;html=1;align=center;verticalAlign=middle;whiteSpace=wrap;rounded=0;" parent="1" vertex="1"><mxGeometry x="-636.29" y="459.99999999999994" width="103" height="30" as="geometry"/></mxCell><mxCell id="33" value="&lt;span style=&quot;background-color: rgb(248, 249, 250);&quot;&gt;1.1.1.16.1:&lt;br&gt;update(itemDelivery,&quot;Status&quot;,status)&lt;br&gt;&lt;/span&gt;" style="html=1;verticalAlign=bottom;startArrow=none;endArrow=block;startSize=8;edgeStyle=elbowEdgeStyle;elbow=vertical;curved=0;rounded=0;startFill=0;" parent="1" source="63" target="30" edge="1"><mxGeometry x="0.2996" relative="1" as="geometry"><mxPoint x="-399" y="648.1600000000001" as="sourcePoint"/><Array as="points"><mxPoint x="-307" y="648.1600000000001"/><mxPoint x="-327" y="650.1600000000001"/><mxPoint x="-397" y="649.1600000000001"/><mxPoint x="-287" y="649.1600000000001"/><mxPoint x="-267" y="639.1600000000001"/><mxPoint x="483" y="639.1600000000001"/><mxPoint x="423" y="639.1600000000001"/><mxPoint x="533" y="659.1600000000001"/><mxPoint x="503" y="679.1600000000001"/></Array><mxPoint as="offset"/><mxPoint x="-232" y="648.1600000000001" as="targetPoint"/></mxGeometry></mxCell><mxCell id="34" value="return" style="html=1;verticalAlign=bottom;endArrow=open;dashed=1;endSize=8;edgeStyle=elbowEdgeStyle;elbow=vertical;curved=0;rounded=0;" parent="1" source="30" target="63" edge="1"><mxGeometry x="-0.3249" relative="1" as="geometry"><mxPoint x="-399" y="665" as="targetPoint"/><Array as="points"><mxPoint x="-215" y="665"/><mxPoint x="-175" y="685"/><mxPoint x="-311" y="676.1600000000001"/><mxPoint x="-360" y="746.16"/><mxPoint x="-365" y="651.11"/><mxPoint x="-415" y="531.11"/><mxPoint x="-325" y="470.78"/><mxPoint x="-315" y="470.78"/><mxPoint x="-385" y="451.25"/><mxPoint x="-340" y="411.25"/><mxPoint x="-320" y="421.25"/></Array><mxPoint x="-232" y="666.1599999999999" as="sourcePoint"/><mxPoint as="offset"/></mxGeometry></mxCell><mxCell id="35" value="&lt;span style=&quot;background-color: rgb(248, 249, 250);&quot;&gt;1.1.1.10.3:&lt;br&gt;insertTruckDeliveryDate(id,date)&lt;br&gt;&lt;/span&gt;" style="html=1;verticalAlign=bottom;startArrow=none;endArrow=block;startSize=8;edgeStyle=elbowEdgeStyle;elbow=vertical;curved=0;rounded=0;startFill=0;" parent="1" edge="1"><mxGeometry x="-0.0909" y="-30" relative="1" as="geometry"><mxPoint x="-820" y="110" as="sourcePoint"/><Array as="points"><mxPoint x="-680" y="110"/><mxPoint x="-700" y="112"/><mxPoint x="-770" y="111"/><mxPoint x="-660" y="111"/><mxPoint x="-640" y="101"/><mxPoint x="110" y="101"/><mxPoint x="50" y="101"/><mxPoint x="160" y="121"/><mxPoint x="130" y="141"/></Array><mxPoint as="offset"/><mxPoint x="-644" y="110" as="targetPoint"/></mxGeometry></mxCell><mxCell id="38" value="&lt;span style=&quot;background-color: rgb(248, 249, 250);&quot;&gt;1.1.1.10.3.1:&lt;br&gt;addToMap(id,date)&lt;br&gt;&lt;/span&gt;" style="html=1;verticalAlign=bottom;startArrow=none;endArrow=block;startSize=8;edgeStyle=elbowEdgeStyle;elbow=vertical;curved=0;rounded=0;startFill=0;" parent="1" target="37" edge="1"><mxGeometry x="0.0426" y="3" relative="1" as="geometry"><mxPoint x="-634" y="113" as="sourcePoint"/><Array as="points"><mxPoint x="-560" y="113"/><mxPoint x="-610" y="153"/><mxPoint x="-690" y="135"/><mxPoint x="-760" y="134"/><mxPoint x="-650" y="134"/><mxPoint x="-630" y="124"/><mxPoint x="120" y="124"/><mxPoint x="60" y="124"/><mxPoint x="170" y="144"/><mxPoint x="140" y="164"/></Array><mxPoint as="offset"/><mxPoint x="-540" y="113" as="targetPoint"/></mxGeometry></mxCell><mxCell id="39" value="return" style="html=1;verticalAlign=bottom;endArrow=open;dashed=1;endSize=8;edgeStyle=elbowEdgeStyle;elbow=vertical;curved=0;rounded=0;" parent="1" source="37" target="3" edge="1"><mxGeometry x="0.069" relative="1" as="geometry"><mxPoint x="-634" y="131" as="targetPoint"/><Array as="points"><mxPoint x="-540" y="130"/><mxPoint x="-640" y="131"/><mxPoint x="-550" y="130"/><mxPoint x="-623" y="131"/><mxPoint x="-672" y="201"/><mxPoint x="-677" y="105.94999999999999"/><mxPoint x="-727" y="-14.050000000000011"/><mxPoint x="-637" y="-74.38"/><mxPoint x="-627" y="-74.38"/><mxPoint x="-697" y="-93.90999999999997"/><mxPoint x="-652" y="-133.91000000000003"/><mxPoint x="-632" y="-123.91000000000003"/></Array><mxPoint x="-540" y="131" as="sourcePoint"/><mxPoint as="offset"/></mxGeometry></mxCell><mxCell id="41" value="&lt;span style=&quot;background-color: rgb(248, 249, 250);&quot;&gt;1.1.1.10.3.2:&lt;br&gt;insert(id,date)&lt;br&gt;&lt;/span&gt;" style="html=1;verticalAlign=bottom;startArrow=none;endArrow=block;startSize=8;edgeStyle=elbowEdgeStyle;elbow=vertical;curved=0;rounded=0;startFill=0;" parent="1" target="40" edge="1"><mxGeometry x="0.0426" y="3" relative="1" as="geometry"><mxPoint x="-633.57" y="170" as="sourcePoint"/><Array as="points"><mxPoint x="-550" y="170"/><mxPoint x="-550" y="160"/><mxPoint x="-559.57" y="170"/><mxPoint x="-609.57" y="210"/><mxPoint x="-689.57" y="192"/><mxPoint x="-759.57" y="191"/><mxPoint x="-649.57" y="191"/><mxPoint x="-629.57" y="181"/><mxPoint x="120.43" y="181"/><mxPoint x="60.43" y="181"/><mxPoint x="170.43" y="201"/><mxPoint x="140.43" y="221"/></Array><mxPoint as="offset"/><mxPoint x="-539.57" y="170" as="targetPoint"/></mxGeometry></mxCell><mxCell id="42" value="return" style="html=1;verticalAlign=bottom;endArrow=open;dashed=1;endSize=8;edgeStyle=elbowEdgeStyle;elbow=vertical;curved=0;rounded=0;" parent="1" edge="1"><mxGeometry relative="1" as="geometry"><mxPoint x="-634" y="186" as="targetPoint"/><Array as="points"><mxPoint x="-583" y="186"/><mxPoint x="-560" y="222"/><mxPoint x="-622.57" y="190"/><mxPoint x="-671.57" y="260"/><mxPoint x="-676.57" y="164.95"/><mxPoint x="-726.57" y="44.94999999999999"/><mxPoint x="-636.57" y="-15.379999999999995"/><mxPoint x="-626.57" y="-15.379999999999995"/><mxPoint x="-696.57" y="-34.90999999999997"/><mxPoint x="-651.57" y="-74.91000000000003"/><mxPoint x="-631.57" y="-64.91000000000003"/></Array><mxPoint x="-525" y="186" as="sourcePoint"/><mxPoint as="offset"/></mxGeometry></mxCell><mxCell id="43" value="return" style="html=1;verticalAlign=bottom;endArrow=open;dashed=1;endSize=8;edgeStyle=elbowEdgeStyle;elbow=vertical;curved=0;rounded=0;" parent="1" source="3" edge="1"><mxGeometry relative="1" as="geometry"><mxPoint x="-810" y="198" as="targetPoint"/><Array as="points"><mxPoint x="-729" y="198"/><mxPoint x="-778" y="268"/><mxPoint x="-783" y="172.95"/><mxPoint x="-833" y="52.94999999999999"/><mxPoint x="-743" y="-7.3799999999999955"/><mxPoint x="-733" y="-7.3799999999999955"/><mxPoint x="-803" y="-26.909999999999968"/><mxPoint x="-758" y="-66.91000000000003"/><mxPoint x="-738" y="-56.910000000000025"/></Array><mxPoint x="-646.0000000000002" y="198" as="sourcePoint"/><mxPoint as="offset"/></mxGeometry></mxCell><mxCell id="48" value="&lt;span style=&quot;background-color: rgb(248, 249, 250);&quot;&gt;1.1.1.12.1.1:&lt;br&gt;addToMap(id,date)&lt;br&gt;&lt;/span&gt;" style="html=1;verticalAlign=bottom;startArrow=none;endArrow=block;startSize=8;edgeStyle=elbowEdgeStyle;elbow=vertical;curved=0;rounded=0;startFill=0;" parent="1" source="53" target="47" edge="1"><mxGeometry x="-0.4074" relative="1" as="geometry"><mxPoint x="-527" y="222" as="sourcePoint"/><Array as="points"><mxPoint x="-453" y="222"/><mxPoint x="-503" y="262"/><mxPoint x="-583" y="244"/><mxPoint x="-653" y="243"/><mxPoint x="-543" y="243"/><mxPoint x="-523" y="233"/><mxPoint x="227" y="233"/><mxPoint x="167" y="233"/><mxPoint x="277" y="253"/><mxPoint x="247" y="273"/></Array><mxPoint as="offset"/><mxPoint x="-433" y="222" as="targetPoint"/></mxGeometry></mxCell><mxCell id="49" value="return" style="html=1;verticalAlign=bottom;endArrow=open;dashed=1;endSize=8;edgeStyle=elbowEdgeStyle;elbow=vertical;curved=0;rounded=0;" parent="1" source="47" target="53" edge="1"><mxGeometry x="0.2432" relative="1" as="geometry"><mxPoint x="-527" y="239" as="targetPoint"/><Array as="points"><mxPoint x="-433" y="239"/><mxPoint x="-533" y="240"/><mxPoint x="-443" y="239"/><mxPoint x="-516" y="240"/><mxPoint x="-565" y="310"/><mxPoint x="-570" y="214.95"/><mxPoint x="-620" y="94.94999999999999"/><mxPoint x="-530" y="34.620000000000005"/><mxPoint x="-520" y="34.620000000000005"/><mxPoint x="-590" y="15.090000000000032"/><mxPoint x="-545" y="-24.910000000000025"/><mxPoint x="-525" y="-14.910000000000025"/></Array><mxPoint x="-433" y="240" as="sourcePoint"/><mxPoint as="offset"/></mxGeometry></mxCell><mxCell id="51" value="&lt;span style=&quot;background-color: rgb(248, 249, 250);&quot;&gt;1.1.1.12.1.2:&lt;br&gt;insert(id,date)&lt;br&gt;&lt;/span&gt;" style="html=1;verticalAlign=bottom;startArrow=none;endArrow=block;startSize=8;edgeStyle=elbowEdgeStyle;elbow=vertical;curved=0;rounded=0;startFill=0;" parent="1" source="53" target="50" edge="1"><mxGeometry x="-0.4074" relative="1" as="geometry"><mxPoint x="-526.5700000000002" y="279" as="sourcePoint"/><Array as="points"><mxPoint x="-443" y="279"/><mxPoint x="-443" y="269"/><mxPoint x="-452.57000000000005" y="279"/><mxPoint x="-502.57000000000005" y="319"/><mxPoint x="-582.57" y="301"/><mxPoint x="-652.57" y="300"/><mxPoint x="-542.57" y="300"/><mxPoint x="-522.57" y="290"/><mxPoint x="227.43" y="290"/><mxPoint x="167.43" y="290"/><mxPoint x="277.43" y="310"/><mxPoint x="247.43" y="330"/></Array><mxPoint as="offset"/><mxPoint x="-432.57000000000005" y="279" as="targetPoint"/></mxGeometry></mxCell><mxCell id="52" value="return" style="html=1;verticalAlign=bottom;endArrow=open;dashed=1;endSize=8;edgeStyle=elbowEdgeStyle;elbow=vertical;curved=0;rounded=0;" parent="1" target="53" edge="1"><mxGeometry x="0.4074" y="5" relative="1" as="geometry"><mxPoint x="-527" y="295" as="targetPoint"/><Array as="points"><mxPoint x="-476" y="295"/><mxPoint x="-453" y="331"/><mxPoint x="-515.57" y="299"/><mxPoint x="-564.57" y="369"/><mxPoint x="-569.57" y="273.95"/><mxPoint x="-619.57" y="153.95"/><mxPoint x="-529.57" y="93.62"/><mxPoint x="-519.57" y="93.62"/><mxPoint x="-589.57" y="74.09000000000003"/><mxPoint x="-544.57" y="34.089999999999975"/><mxPoint x="-524.57" y="44.089999999999975"/></Array><mxPoint x="-418" y="295" as="sourcePoint"/><mxPoint as="offset"/></mxGeometry></mxCell><mxCell id="54" value="&lt;span style=&quot;background-color: rgb(248, 249, 250);&quot;&gt;1.1.1.12.1:&lt;br&gt;insertDriverDeliveryDate(id,date)&lt;br&gt;&lt;/span&gt;" style="html=1;verticalAlign=bottom;startArrow=none;endArrow=block;startSize=8;edgeStyle=elbowEdgeStyle;elbow=vertical;curved=0;rounded=0;startFill=0;" parent="1" edge="1"><mxGeometry x="-0.0909" y="-30" relative="1" as="geometry"><mxPoint x="-820" y="210.66" as="sourcePoint"/><Array as="points"><mxPoint x="-680" y="210.66"/><mxPoint x="-700" y="212.66"/><mxPoint x="-770" y="211.66"/><mxPoint x="-660" y="211.66"/><mxPoint x="-640" y="201.66"/><mxPoint x="110" y="201.66"/><mxPoint x="50" y="201.66"/><mxPoint x="160" y="221.66"/><mxPoint x="130" y="241.66"/></Array><mxPoint as="offset"/><mxPoint x="-644" y="210.66" as="targetPoint"/></mxGeometry></mxCell><mxCell id="55" value="return" style="html=1;verticalAlign=bottom;endArrow=open;dashed=1;endSize=8;edgeStyle=elbowEdgeStyle;elbow=vertical;curved=0;rounded=0;" parent="1" edge="1"><mxGeometry relative="1" as="geometry"><mxPoint x="-810" y="298.65999999999997" as="targetPoint"/><Array as="points"><mxPoint x="-729" y="298.65999999999997"/><mxPoint x="-778" y="368.65999999999997"/><mxPoint x="-783" y="273.61"/><mxPoint x="-833" y="153.60999999999999"/><mxPoint x="-743" y="93.28"/><mxPoint x="-733" y="93.28"/><mxPoint x="-803" y="73.75000000000003"/><mxPoint x="-758" y="33.74999999999997"/><mxPoint x="-738" y="43.74999999999997"/></Array><mxPoint x="-644" y="298.65999999999997" as="sourcePoint"/><mxPoint as="offset"/></mxGeometry></mxCell><mxCell id="66" value="return" style="html=1;verticalAlign=bottom;endArrow=open;dashed=1;endSize=8;edgeStyle=elbowEdgeStyle;elbow=vertical;curved=0;rounded=0;exitX=0.152;exitY=0.423;exitDx=0;exitDy=0;exitPerimeter=0;" parent="1" edge="1"><mxGeometry relative="1" as="geometry"><mxPoint x="-809.52" y="672.72" as="targetPoint"/><Array as="points"><mxPoint x="-661.52" y="672.72"/><mxPoint x="-681.52" y="669.72"/><mxPoint x="-707.52" y="669.72"/><mxPoint x="-756.52" y="739.72"/><mxPoint x="-761.52" y="644.6700000000001"/><mxPoint x="-811.52" y="524.67"/><mxPoint x="-721.52" y="464.34000000000003"/><mxPoint x="-711.52" y="464.34000000000003"/><mxPoint x="-781.52" y="444.81000000000006"/><mxPoint x="-736.52" y="404.80999999999995"/><mxPoint x="-716.52" y="414.80999999999995"/></Array><mxPoint x="-644" y="672.74" as="sourcePoint"/><mxPoint as="offset"/></mxGeometry></mxCell><mxCell id="68" value="&lt;span style=&quot;background-color: rgb(248, 249, 250);&quot;&gt;1.1.1.17: updateItemOrder(itemOrder,&quot;Status&quot;)&lt;br&gt;&lt;/span&gt;" style="html=1;verticalAlign=bottom;startArrow=none;endArrow=block;startSize=8;edgeStyle=elbowEdgeStyle;elbow=vertical;curved=0;rounded=0;startFill=0;" parent="1" edge="1"><mxGeometry x="0.3636" y="5" relative="1" as="geometry"><mxPoint x="-820" y="705" as="sourcePoint"/><Array as="points"><mxPoint x="-680" y="705"/><mxPoint x="-700" y="707"/><mxPoint x="-770" y="706"/><mxPoint x="-660" y="706"/><mxPoint x="-640" y="696"/><mxPoint x="110" y="696"/><mxPoint x="50" y="696"/><mxPoint x="160" y="716"/><mxPoint x="130" y="736"/></Array><mxPoint as="offset"/><mxPoint x="-644" y="705" as="targetPoint"/></mxGeometry></mxCell><mxCell id="69" value="&lt;span style=&quot;background-color: rgb(248, 249, 250);&quot;&gt;1.1.1.17.1:&lt;br&gt;update(itemOrder,&quot;Status&quot;,status)&lt;br&gt;&lt;/span&gt;" style="html=1;verticalAlign=bottom;startArrow=none;endArrow=block;startSize=8;edgeStyle=elbowEdgeStyle;elbow=vertical;curved=0;rounded=0;startFill=0;" parent="1" source="67" target="65" edge="1"><mxGeometry x="0.0772" relative="1" as="geometry"><mxPoint x="-634" y="720.0000000000001" as="sourcePoint"/><Array as="points"><mxPoint x="-550" y="710"/><mxPoint x="-307" y="720.0000000000001"/><mxPoint x="-327" y="722.0000000000001"/><mxPoint x="-397" y="721.0000000000001"/><mxPoint x="-287" y="721.0000000000001"/><mxPoint x="-267" y="711.0000000000001"/><mxPoint x="483" y="711.0000000000001"/><mxPoint x="423" y="711.0000000000001"/><mxPoint x="533" y="731.0000000000001"/><mxPoint x="503" y="751.0000000000001"/></Array><mxPoint as="offset"/><mxPoint x="-160" y="720.0000000000001" as="targetPoint"/></mxGeometry></mxCell><mxCell id="70" value="return" style="html=1;verticalAlign=bottom;endArrow=open;dashed=1;endSize=8;edgeStyle=elbowEdgeStyle;elbow=vertical;curved=0;rounded=0;" parent="1" source="65" edge="1"><mxGeometry x="-0.3249" relative="1" as="geometry"><mxPoint x="-635" y="729" as="targetPoint"/><Array as="points"><mxPoint x="-131" y="729.44"/><mxPoint x="-91" y="749.44"/><mxPoint x="-227" y="740.6000000000001"/><mxPoint x="-276" y="810.5999999999999"/><mxPoint x="-281" y="715.55"/><mxPoint x="-331" y="595.55"/><mxPoint x="-241" y="535.22"/><mxPoint x="-231" y="535.22"/><mxPoint x="-301" y="515.69"/><mxPoint x="-256" y="475.69"/><mxPoint x="-236" y="485.69"/></Array><mxPoint x="-76" y="729.44" as="sourcePoint"/><mxPoint as="offset"/></mxGeometry></mxCell><mxCell id="71" value="return" style="html=1;verticalAlign=bottom;endArrow=open;dashed=1;endSize=8;edgeStyle=elbowEdgeStyle;elbow=vertical;curved=0;rounded=0;exitX=0.152;exitY=0.423;exitDx=0;exitDy=0;exitPerimeter=0;" parent="1" edge="1"><mxGeometry relative="1" as="geometry"><mxPoint x="-809.52" y="738.72" as="targetPoint"/><Array as="points"><mxPoint x="-661.52" y="738.72"/><mxPoint x="-681.52" y="735.72"/><mxPoint x="-707.52" y="735.72"/><mxPoint x="-756.52" y="805.72"/><mxPoint x="-761.52" y="710.6700000000001"/><mxPoint x="-811.52" y="590.67"/><mxPoint x="-721.52" y="530.34"/><mxPoint x="-711.52" y="530.34"/><mxPoint x="-781.52" y="510.81000000000006"/><mxPoint x="-736.52" y="470.80999999999995"/><mxPoint x="-716.52" y="480.80999999999995"/></Array><mxPoint x="-644" y="738.74" as="sourcePoint"/><mxPoint as="offset"/></mxGeometry></mxCell><mxCell id="74" value="&lt;span style=&quot;background-color: rgb(248, 249, 250);&quot;&gt;1.1.1.18: updateItemOrder(itemOrder,&quot;ItemDelivery1Id&quot;)&lt;br&gt;&lt;/span&gt;" style="html=1;verticalAlign=bottom;startArrow=none;endArrow=block;startSize=8;edgeStyle=elbowEdgeStyle;elbow=vertical;curved=0;rounded=0;startFill=0;" parent="1" edge="1"><mxGeometry x="0.5909" y="5" relative="1" as="geometry"><mxPoint x="-820" y="775" as="sourcePoint"/><Array as="points"><mxPoint x="-680" y="775"/><mxPoint x="-700" y="777"/><mxPoint x="-770" y="776"/><mxPoint x="-660" y="776"/><mxPoint x="-640" y="766"/><mxPoint x="110" y="766"/><mxPoint x="50" y="766"/><mxPoint x="160" y="786"/><mxPoint x="130" y="806"/></Array><mxPoint as="offset"/><mxPoint x="-644" y="775" as="targetPoint"/></mxGeometry></mxCell><mxCell id="75" value="&lt;span style=&quot;background-color: rgb(248, 249, 250);&quot;&gt;1.1.1.18.1:&lt;br&gt;update(itemOrder,&quot;ItemDelivery1Id&quot;,id)&lt;br&gt;&lt;/span&gt;" style="html=1;verticalAlign=bottom;startArrow=none;endArrow=block;startSize=8;edgeStyle=elbowEdgeStyle;elbow=vertical;curved=0;rounded=0;startFill=0;" parent="1" source="73" target="72" edge="1"><mxGeometry x="0.0772" relative="1" as="geometry"><mxPoint x="-634" y="790.0000000000001" as="sourcePoint"/><Array as="points"><mxPoint x="-550" y="780"/><mxPoint x="-307" y="790.0000000000001"/><mxPoint x="-327" y="792.0000000000001"/><mxPoint x="-397" y="791.0000000000001"/><mxPoint x="-287" y="791.0000000000001"/><mxPoint x="-267" y="781.0000000000001"/><mxPoint x="483" y="781.0000000000001"/><mxPoint x="423" y="781.0000000000001"/><mxPoint x="533" y="801.0000000000001"/><mxPoint x="503" y="821.0000000000001"/></Array><mxPoint as="offset"/><mxPoint x="-160" y="790.0000000000001" as="targetPoint"/></mxGeometry></mxCell><mxCell id="76" value="return" style="html=1;verticalAlign=bottom;endArrow=open;dashed=1;endSize=8;edgeStyle=elbowEdgeStyle;elbow=vertical;curved=0;rounded=0;" parent="1" source="72" edge="1"><mxGeometry x="-0.3249" relative="1" as="geometry"><mxPoint x="-635" y="799" as="targetPoint"/><Array as="points"><mxPoint x="-131" y="799.44"/><mxPoint x="-91" y="819.44"/><mxPoint x="-227" y="810.6000000000001"/><mxPoint x="-276" y="880.5999999999999"/><mxPoint x="-281" y="785.55"/><mxPoint x="-331" y="665.55"/><mxPoint x="-241" y="605.22"/><mxPoint x="-231" y="605.22"/><mxPoint x="-301" y="585.69"/><mxPoint x="-256" y="545.69"/><mxPoint x="-236" y="555.69"/></Array><mxPoint x="-76" y="799.44" as="sourcePoint"/><mxPoint as="offset"/></mxGeometry></mxCell><mxCell id="77" value="return" style="html=1;verticalAlign=bottom;endArrow=open;dashed=1;endSize=8;edgeStyle=elbowEdgeStyle;elbow=vertical;curved=0;rounded=0;exitX=0.152;exitY=0.423;exitDx=0;exitDy=0;exitPerimeter=0;" parent="1" edge="1"><mxGeometry relative="1" as="geometry"><mxPoint x="-809.52" y="808.72" as="targetPoint"/><Array as="points"><mxPoint x="-661.52" y="808.72"/><mxPoint x="-681.52" y="805.72"/><mxPoint x="-707.52" y="805.72"/><mxPoint x="-756.52" y="875.72"/><mxPoint x="-761.52" y="780.6700000000001"/><mxPoint x="-811.52" y="660.67"/><mxPoint x="-721.52" y="600.34"/><mxPoint x="-711.52" y="600.34"/><mxPoint x="-781.52" y="580.8100000000001"/><mxPoint x="-736.52" y="540.81"/><mxPoint x="-716.52" y="550.81"/></Array><mxPoint x="-644" y="808.74" as="sourcePoint"/><mxPoint as="offset"/></mxGeometry></mxCell><mxCell id="86" value="&lt;span style=&quot;background-color: rgb(248, 249, 250);&quot;&gt;1.1.1.18: updateItemOrder(itemOrder,&quot;ItemDelivery2Id&quot;)&lt;/span&gt;&lt;span style=&quot;background-color: rgb(248, 249, 250);&quot;&gt;&lt;br&gt;&lt;/span&gt;" style="html=1;verticalAlign=bottom;startArrow=none;endArrow=block;startSize=8;edgeStyle=elbowEdgeStyle;elbow=vertical;curved=0;rounded=0;startFill=0;" parent="1" edge="1"><mxGeometry x="0.5909" y="5" relative="1" as="geometry"><mxPoint x="-820" y="845" as="sourcePoint"/><Array as="points"><mxPoint x="-680" y="845"/><mxPoint x="-700" y="847"/><mxPoint x="-770" y="846"/><mxPoint x="-660" y="846"/><mxPoint x="-640" y="836"/><mxPoint x="110" y="836"/><mxPoint x="50" y="836"/><mxPoint x="160" y="856"/><mxPoint x="130" y="876"/></Array><mxPoint as="offset"/><mxPoint x="-644" y="845" as="targetPoint"/></mxGeometry></mxCell><mxCell id="87" value="&lt;span style=&quot;background-color: rgb(248, 249, 250);&quot;&gt;1.1.1.19.1:&lt;/span&gt;&lt;br&gt;&lt;span style=&quot;background-color: rgb(248, 249, 250);&quot;&gt;update(itemOrder,&quot;ItemDelivery2Id&quot;,id)&lt;/span&gt;&lt;span style=&quot;background-color: rgb(248, 249, 250);&quot;&gt;&lt;br&gt;&lt;/span&gt;" style="html=1;verticalAlign=bottom;startArrow=none;endArrow=block;startSize=8;edgeStyle=elbowEdgeStyle;elbow=vertical;curved=0;rounded=0;startFill=0;" parent="1" source="85" target="84" edge="1"><mxGeometry x="0.0772" relative="1" as="geometry"><mxPoint x="-634" y="860.0000000000001" as="sourcePoint"/><Array as="points"><mxPoint x="-550" y="850"/><mxPoint x="-307" y="860.0000000000001"/><mxPoint x="-327" y="862.0000000000001"/><mxPoint x="-397" y="861.0000000000001"/><mxPoint x="-287" y="861.0000000000001"/><mxPoint x="-267" y="851.0000000000001"/><mxPoint x="483" y="851.0000000000001"/><mxPoint x="423" y="851.0000000000001"/><mxPoint x="533" y="871.0000000000001"/><mxPoint x="503" y="891.0000000000001"/></Array><mxPoint as="offset"/><mxPoint x="-160" y="860.0000000000001" as="targetPoint"/></mxGeometry></mxCell><mxCell id="88" value="return" style="html=1;verticalAlign=bottom;endArrow=open;dashed=1;endSize=8;edgeStyle=elbowEdgeStyle;elbow=vertical;curved=0;rounded=0;" parent="1" source="84" edge="1"><mxGeometry x="-0.3249" relative="1" as="geometry"><mxPoint x="-635" y="869" as="targetPoint"/><Array as="points"><mxPoint x="-131" y="869.44"/><mxPoint x="-91" y="889.44"/><mxPoint x="-227" y="880.6000000000001"/><mxPoint x="-276" y="950.5999999999999"/><mxPoint x="-281" y="855.55"/><mxPoint x="-331" y="735.55"/><mxPoint x="-241" y="675.22"/><mxPoint x="-231" y="675.22"/><mxPoint x="-301" y="655.69"/><mxPoint x="-256" y="615.69"/><mxPoint x="-236" y="625.69"/></Array><mxPoint x="-76" y="869.44" as="sourcePoint"/><mxPoint as="offset"/></mxGeometry></mxCell><mxCell id="89" value="return" style="html=1;verticalAlign=bottom;endArrow=open;dashed=1;endSize=8;edgeStyle=elbowEdgeStyle;elbow=vertical;curved=0;rounded=0;exitX=0.152;exitY=0.423;exitDx=0;exitDy=0;exitPerimeter=0;" parent="1" edge="1"><mxGeometry relative="1" as="geometry"><mxPoint x="-809.52" y="878.72" as="targetPoint"/><Array as="points"><mxPoint x="-661.52" y="878.72"/><mxPoint x="-681.52" y="875.72"/><mxPoint x="-707.52" y="875.72"/><mxPoint x="-756.52" y="945.72"/><mxPoint x="-761.52" y="850.6700000000001"/><mxPoint x="-811.52" y="730.67"/><mxPoint x="-721.52" y="670.34"/><mxPoint x="-711.52" y="670.34"/><mxPoint x="-781.52" y="650.8100000000001"/><mxPoint x="-736.52" y="610.81"/><mxPoint x="-716.52" y="620.81"/></Array><mxPoint x="-644" y="878.74" as="sourcePoint"/><mxPoint as="offset"/></mxGeometry></mxCell><mxCell id="91" value="&lt;b&gt;Loop&lt;/b&gt;" style="rounded=0;whiteSpace=wrap;html=1;" parent="1" vertex="1"><mxGeometry x="-819" y="1246" width="70" height="30" as="geometry"/></mxCell><mxCell id="92" value="[for all ItemDeliveries in stop unload list]" style="text;html=1;align=center;verticalAlign=middle;whiteSpace=wrap;rounded=0;" parent="1" vertex="1"><mxGeometry x="-638.9964365346535" y="1250" width="110.42148514851485" height="34.55999999999999" as="geometry"/></mxCell><mxCell id="94" value="&lt;span style=&quot;background-color: rgb(248, 249, 250);&quot;&gt;1.1.1.20:&lt;br&gt;updateItemDeliveryStatus(itemDelivery)&lt;br&gt;&lt;/span&gt;" style="html=1;verticalAlign=bottom;startArrow=none;endArrow=block;startSize=8;edgeStyle=elbowEdgeStyle;elbow=vertical;curved=0;rounded=0;startFill=0;" parent="1" edge="1"><mxGeometry x="0.1364" y="2" relative="1" as="geometry"><mxPoint x="-819" y="1319" as="sourcePoint"/><Array as="points"><mxPoint x="-679" y="1319"/><mxPoint x="-699" y="1321"/><mxPoint x="-769" y="1320"/><mxPoint x="-659" y="1320"/><mxPoint x="-639" y="1310"/><mxPoint x="111" y="1310"/><mxPoint x="51" y="1310"/><mxPoint x="161" y="1330"/><mxPoint x="131" y="1350"/></Array><mxPoint as="offset"/><mxPoint x="-643" y="1319" as="targetPoint"/></mxGeometry></mxCell><mxCell id="95" value="&lt;span style=&quot;background-color: rgb(248, 249, 250);&quot;&gt;1.1.1.20.1:&lt;br&gt;update(itemDelivery,&quot;Status&quot;,status)&lt;br&gt;&lt;/span&gt;" style="html=1;verticalAlign=bottom;startArrow=none;endArrow=block;startSize=8;edgeStyle=elbowEdgeStyle;elbow=vertical;curved=0;rounded=0;startFill=0;" parent="1" source="97" target="93" edge="1"><mxGeometry x="0.2996" relative="1" as="geometry"><mxPoint x="-398" y="1329.16" as="sourcePoint"/><Array as="points"><mxPoint x="-306" y="1329.16"/><mxPoint x="-326" y="1331.16"/><mxPoint x="-396" y="1330.16"/><mxPoint x="-286" y="1330.16"/><mxPoint x="-266" y="1320.16"/><mxPoint x="484" y="1320.16"/><mxPoint x="424" y="1320.16"/><mxPoint x="534" y="1340.16"/><mxPoint x="504" y="1360.16"/></Array><mxPoint as="offset"/><mxPoint x="-231" y="1329.16" as="targetPoint"/></mxGeometry></mxCell><mxCell id="96" value="return" style="html=1;verticalAlign=bottom;endArrow=open;dashed=1;endSize=8;edgeStyle=elbowEdgeStyle;elbow=vertical;curved=0;rounded=0;" parent="1" source="93" target="97" edge="1"><mxGeometry x="-0.3249" relative="1" as="geometry"><mxPoint x="-398" y="1346" as="targetPoint"/><Array as="points"><mxPoint x="-214" y="1346"/><mxPoint x="-174" y="1366"/><mxPoint x="-310" y="1357.16"/><mxPoint x="-359" y="1427.1599999999999"/><mxPoint x="-364" y="1332.1100000000001"/><mxPoint x="-414" y="1212.1100000000001"/><mxPoint x="-324" y="1151.78"/><mxPoint x="-314" y="1151.78"/><mxPoint x="-384" y="1132.25"/><mxPoint x="-339" y="1092.25"/><mxPoint x="-319" y="1102.25"/></Array><mxPoint x="-231" y="1347.1599999999999" as="sourcePoint"/><mxPoint as="offset"/></mxGeometry></mxCell><mxCell id="99" value="return" style="html=1;verticalAlign=bottom;endArrow=open;dashed=1;endSize=8;edgeStyle=elbowEdgeStyle;elbow=vertical;curved=0;rounded=0;exitX=0.152;exitY=0.423;exitDx=0;exitDy=0;exitPerimeter=0;" parent="1" edge="1"><mxGeometry relative="1" as="geometry"><mxPoint x="-808.52" y="1353.72" as="targetPoint"/><Array as="points"><mxPoint x="-660.52" y="1353.72"/><mxPoint x="-680.52" y="1350.72"/><mxPoint x="-706.52" y="1350.72"/><mxPoint x="-755.52" y="1420.72"/><mxPoint x="-760.52" y="1325.67"/><mxPoint x="-810.52" y="1205.67"/><mxPoint x="-720.52" y="1145.3400000000001"/><mxPoint x="-710.52" y="1145.3400000000001"/><mxPoint x="-780.52" y="1125.81"/><mxPoint x="-735.52" y="1085.81"/><mxPoint x="-715.52" y="1095.81"/></Array><mxPoint x="-643" y="1353.74" as="sourcePoint"/><mxPoint as="offset"/></mxGeometry></mxCell><mxCell id="101" value="&lt;span style=&quot;background-color: rgb(248, 249, 250);&quot;&gt;1.1.1.21: updateItemOrder(itemOrder,&quot;Status&quot;)&lt;br&gt;&lt;/span&gt;" style="html=1;verticalAlign=bottom;startArrow=none;endArrow=block;startSize=8;edgeStyle=elbowEdgeStyle;elbow=vertical;curved=0;rounded=0;startFill=0;" parent="1" edge="1"><mxGeometry x="0.3636" y="5" relative="1" as="geometry"><mxPoint x="-819" y="1385.9999999999998" as="sourcePoint"/><Array as="points"><mxPoint x="-679" y="1386"/><mxPoint x="-699" y="1388"/><mxPoint x="-769" y="1387"/><mxPoint x="-659" y="1387"/><mxPoint x="-639" y="1377"/><mxPoint x="111" y="1377"/><mxPoint x="51" y="1377"/><mxPoint x="161" y="1397"/><mxPoint x="131" y="1417"/></Array><mxPoint as="offset"/><mxPoint x="-643" y="1385.9999999999998" as="targetPoint"/></mxGeometry></mxCell><mxCell id="102" value="&lt;span style=&quot;background-color: rgb(248, 249, 250);&quot;&gt;1.1.1.21.1:&lt;br&gt;update(itemOrder,&quot;Status&quot;,status)&lt;br&gt;&lt;/span&gt;" style="html=1;verticalAlign=bottom;startArrow=none;endArrow=block;startSize=8;edgeStyle=elbowEdgeStyle;elbow=vertical;curved=0;rounded=0;startFill=0;" parent="1" source="100" target="98" edge="1"><mxGeometry x="0.0772" relative="1" as="geometry"><mxPoint x="-633" y="1401" as="sourcePoint"/><Array as="points"><mxPoint x="-549" y="1391"/><mxPoint x="-306" y="1401"/><mxPoint x="-326" y="1403"/><mxPoint x="-396" y="1402"/><mxPoint x="-286" y="1402"/><mxPoint x="-266" y="1392"/><mxPoint x="484" y="1392"/><mxPoint x="424" y="1392"/><mxPoint x="534" y="1412"/><mxPoint x="504" y="1432"/></Array><mxPoint as="offset"/><mxPoint x="-159" y="1401" as="targetPoint"/></mxGeometry></mxCell><mxCell id="103" value="return" style="html=1;verticalAlign=bottom;endArrow=open;dashed=1;endSize=8;edgeStyle=elbowEdgeStyle;elbow=vertical;curved=0;rounded=0;" parent="1" source="98" edge="1"><mxGeometry x="-0.3249" relative="1" as="geometry"><mxPoint x="-634" y="1410" as="targetPoint"/><Array as="points"><mxPoint x="-130" y="1410.44"/><mxPoint x="-90" y="1430.44"/><mxPoint x="-226" y="1421.6000000000001"/><mxPoint x="-275" y="1491.6"/><mxPoint x="-280" y="1396.55"/><mxPoint x="-330" y="1276.55"/><mxPoint x="-240" y="1216.22"/><mxPoint x="-230" y="1216.22"/><mxPoint x="-300" y="1196.69"/><mxPoint x="-255" y="1156.69"/><mxPoint x="-235" y="1166.69"/></Array><mxPoint x="-75" y="1410.44" as="sourcePoint"/><mxPoint as="offset"/></mxGeometry></mxCell><mxCell id="104" value="return" style="html=1;verticalAlign=bottom;endArrow=open;dashed=1;endSize=8;edgeStyle=elbowEdgeStyle;elbow=vertical;curved=0;rounded=0;exitX=0.152;exitY=0.423;exitDx=0;exitDy=0;exitPerimeter=0;" parent="1" edge="1"><mxGeometry relative="1" as="geometry"><mxPoint x="-808.52" y="1419.72" as="targetPoint"/><Array as="points"><mxPoint x="-660.52" y="1419.72"/><mxPoint x="-680.52" y="1416.72"/><mxPoint x="-706.52" y="1416.72"/><mxPoint x="-755.52" y="1486.72"/><mxPoint x="-760.52" y="1391.67"/><mxPoint x="-810.52" y="1271.67"/><mxPoint x="-720.52" y="1211.3400000000001"/><mxPoint x="-710.52" y="1211.3400000000001"/><mxPoint x="-780.52" y="1191.81"/><mxPoint x="-735.52" y="1151.81"/><mxPoint x="-715.52" y="1161.81"/></Array><mxPoint x="-643" y="1419.74" as="sourcePoint"/><mxPoint as="offset"/></mxGeometry></mxCell><mxCell id="107" value="&lt;span style=&quot;background-color: rgb(248, 249, 250);&quot;&gt;1.1.1.22: updateItemOrder(itemOrder,&quot;ItemDelivery1Id&quot;)&lt;br&gt;&lt;/span&gt;" style="html=1;verticalAlign=bottom;startArrow=none;endArrow=block;startSize=8;edgeStyle=elbowEdgeStyle;elbow=vertical;curved=0;rounded=0;startFill=0;" parent="1" edge="1"><mxGeometry x="0.5909" y="5" relative="1" as="geometry"><mxPoint x="-819" y="1455.9999999999998" as="sourcePoint"/><Array as="points"><mxPoint x="-679" y="1456"/><mxPoint x="-699" y="1458"/><mxPoint x="-769" y="1457"/><mxPoint x="-659" y="1457"/><mxPoint x="-639" y="1447"/><mxPoint x="111" y="1447"/><mxPoint x="51" y="1447"/><mxPoint x="161" y="1467"/><mxPoint x="131" y="1487"/></Array><mxPoint as="offset"/><mxPoint x="-643" y="1455.9999999999998" as="targetPoint"/></mxGeometry></mxCell><mxCell id="108" value="&lt;span style=&quot;background-color: rgb(248, 249, 250);&quot;&gt;1.1.1.22.1:&lt;br&gt;update(itemOrder,&quot;ItemDelivery1Id&quot;,id)&lt;br&gt;&lt;/span&gt;" style="html=1;verticalAlign=bottom;startArrow=none;endArrow=block;startSize=8;edgeStyle=elbowEdgeStyle;elbow=vertical;curved=0;rounded=0;startFill=0;" parent="1" source="106" target="105" edge="1"><mxGeometry x="0.0772" relative="1" as="geometry"><mxPoint x="-633" y="1471" as="sourcePoint"/><Array as="points"><mxPoint x="-549" y="1461"/><mxPoint x="-306" y="1471"/><mxPoint x="-326" y="1473"/><mxPoint x="-396" y="1472"/><mxPoint x="-286" y="1472"/><mxPoint x="-266" y="1462"/><mxPoint x="484" y="1462"/><mxPoint x="424" y="1462"/><mxPoint x="534" y="1482"/><mxPoint x="504" y="1502"/></Array><mxPoint as="offset"/><mxPoint x="-159" y="1471" as="targetPoint"/></mxGeometry></mxCell><mxCell id="109" value="return" style="html=1;verticalAlign=bottom;endArrow=open;dashed=1;endSize=8;edgeStyle=elbowEdgeStyle;elbow=vertical;curved=0;rounded=0;" parent="1" source="105" edge="1"><mxGeometry x="-0.3249" relative="1" as="geometry"><mxPoint x="-634" y="1480" as="targetPoint"/><Array as="points"><mxPoint x="-130" y="1480.44"/><mxPoint x="-90" y="1500.44"/><mxPoint x="-226" y="1491.6000000000001"/><mxPoint x="-275" y="1561.6"/><mxPoint x="-280" y="1466.55"/><mxPoint x="-330" y="1346.55"/><mxPoint x="-240" y="1286.22"/><mxPoint x="-230" y="1286.22"/><mxPoint x="-300" y="1266.69"/><mxPoint x="-255" y="1226.69"/><mxPoint x="-235" y="1236.69"/></Array><mxPoint x="-75" y="1480.44" as="sourcePoint"/><mxPoint as="offset"/></mxGeometry></mxCell><mxCell id="110" value="return" style="html=1;verticalAlign=bottom;endArrow=open;dashed=1;endSize=8;edgeStyle=elbowEdgeStyle;elbow=vertical;curved=0;rounded=0;exitX=0.152;exitY=0.423;exitDx=0;exitDy=0;exitPerimeter=0;" parent="1" edge="1"><mxGeometry relative="1" as="geometry"><mxPoint x="-808.52" y="1489.72" as="targetPoint"/><Array as="points"><mxPoint x="-660.52" y="1489.72"/><mxPoint x="-680.52" y="1486.72"/><mxPoint x="-706.52" y="1486.72"/><mxPoint x="-755.52" y="1556.72"/><mxPoint x="-760.52" y="1461.67"/><mxPoint x="-810.52" y="1341.67"/><mxPoint x="-720.52" y="1281.3400000000001"/><mxPoint x="-710.52" y="1281.3400000000001"/><mxPoint x="-780.52" y="1261.81"/><mxPoint x="-735.52" y="1221.81"/><mxPoint x="-715.52" y="1231.81"/></Array><mxPoint x="-643" y="1489.74" as="sourcePoint"/><mxPoint as="offset"/></mxGeometry></mxCell><mxCell id="113" value="&lt;span style=&quot;background-color: rgb(248, 249, 250);&quot;&gt;1.1.1.23: updateItemOrder(itemOrder,&quot;ItemDelivery2Id&quot;)&lt;/span&gt;&lt;span style=&quot;background-color: rgb(248, 249, 250);&quot;&gt;&lt;br&gt;&lt;/span&gt;" style="html=1;verticalAlign=bottom;startArrow=none;endArrow=block;startSize=8;edgeStyle=elbowEdgeStyle;elbow=vertical;curved=0;rounded=0;startFill=0;" parent="1" edge="1"><mxGeometry x="0.5909" y="5" relative="1" as="geometry"><mxPoint x="-819" y="1525.9999999999998" as="sourcePoint"/><Array as="points"><mxPoint x="-679" y="1526"/><mxPoint x="-699" y="1528"/><mxPoint x="-769" y="1527"/><mxPoint x="-659" y="1527"/><mxPoint x="-639" y="1517"/><mxPoint x="111" y="1517"/><mxPoint x="51" y="1517"/><mxPoint x="161" y="1537"/><mxPoint x="131" y="1557"/></Array><mxPoint as="offset"/><mxPoint x="-643" y="1525.9999999999998" as="targetPoint"/></mxGeometry></mxCell><mxCell id="114" value="&lt;span style=&quot;background-color: rgb(248, 249, 250);&quot;&gt;1.1.1.23.1:&lt;/span&gt;&lt;br&gt;&lt;span style=&quot;background-color: rgb(248, 249, 250);&quot;&gt;update(itemOrder,&quot;ItemDelivery2Id&quot;,id)&lt;/span&gt;&lt;span style=&quot;background-color: rgb(248, 249, 250);&quot;&gt;&lt;br&gt;&lt;/span&gt;" style="html=1;verticalAlign=bottom;startArrow=none;endArrow=block;startSize=8;edgeStyle=elbowEdgeStyle;elbow=vertical;curved=0;rounded=0;startFill=0;" parent="1" source="112" target="111" edge="1"><mxGeometry x="0.0772" relative="1" as="geometry"><mxPoint x="-633" y="1541" as="sourcePoint"/><Array as="points"><mxPoint x="-549" y="1531"/><mxPoint x="-306" y="1541"/><mxPoint x="-326" y="1543"/><mxPoint x="-396" y="1542"/><mxPoint x="-286" y="1542"/><mxPoint x="-266" y="1532"/><mxPoint x="484" y="1532"/><mxPoint x="424" y="1532"/><mxPoint x="534" y="1552"/><mxPoint x="504" y="1572"/></Array><mxPoint as="offset"/><mxPoint x="-159" y="1541" as="targetPoint"/></mxGeometry></mxCell><mxCell id="115" value="return" style="html=1;verticalAlign=bottom;endArrow=open;dashed=1;endSize=8;edgeStyle=elbowEdgeStyle;elbow=vertical;curved=0;rounded=0;" parent="1" source="111" edge="1"><mxGeometry x="-0.3249" relative="1" as="geometry"><mxPoint x="-634" y="1550" as="targetPoint"/><Array as="points"><mxPoint x="-130" y="1550.44"/><mxPoint x="-90" y="1570.44"/><mxPoint x="-226" y="1561.6000000000001"/><mxPoint x="-275" y="1631.6"/><mxPoint x="-280" y="1536.55"/><mxPoint x="-330" y="1416.55"/><mxPoint x="-240" y="1356.22"/><mxPoint x="-230" y="1356.22"/><mxPoint x="-300" y="1336.69"/><mxPoint x="-255" y="1296.69"/><mxPoint x="-235" y="1306.69"/></Array><mxPoint x="-75" y="1550.44" as="sourcePoint"/><mxPoint as="offset"/></mxGeometry></mxCell><mxCell id="116" value="return" style="html=1;verticalAlign=bottom;endArrow=open;dashed=1;endSize=8;edgeStyle=elbowEdgeStyle;elbow=vertical;curved=0;rounded=0;exitX=0.152;exitY=0.423;exitDx=0;exitDy=0;exitPerimeter=0;" parent="1" edge="1"><mxGeometry relative="1" as="geometry"><mxPoint x="-808.52" y="1559.72" as="targetPoint"/><Array as="points"><mxPoint x="-660.52" y="1559.72"/><mxPoint x="-680.52" y="1556.72"/><mxPoint x="-706.52" y="1556.72"/><mxPoint x="-755.52" y="1626.7200000000003"/><mxPoint x="-760.52" y="1531.67"/><mxPoint x="-810.52" y="1411.67"/><mxPoint x="-720.52" y="1351.3400000000001"/><mxPoint x="-710.52" y="1351.3400000000001"/><mxPoint x="-780.52" y="1331.81"/><mxPoint x="-735.52" y="1291.81"/><mxPoint x="-715.52" y="1301.81"/></Array><mxPoint x="-643" y="1559.74" as="sourcePoint"/><mxPoint as="offset"/></mxGeometry></mxCell><mxCell id="2" value="&lt;font style=&quot;font-size: 10px;&quot;&gt;DALFacade&lt;/font&gt;" style="shape=umlLifeline;perimeter=lifelinePerimeter;whiteSpace=wrap;html=1;container=0;dropTarget=0;collapsible=0;recursiveResize=0;outlineConnect=0;portConstraint=eastwest;newEdgeStyle={&quot;edgeStyle&quot;:&quot;elbowEdgeStyle&quot;,&quot;elbow&quot;:&quot;vertical&quot;,&quot;curved&quot;:0,&quot;rounded&quot;:0};" parent="1" vertex="1"><mxGeometry x="-674" y="10" width="70" height="1140" as="geometry"/></mxCell><mxCell id="3" value="" style="html=1;points=[];perimeter=orthogonalPerimeter;outlineConnect=0;targetShapes=umlLifeline;portConstraint=eastwest;newEdgeStyle={&quot;edgeStyle&quot;:&quot;elbowEdgeStyle&quot;,&quot;elbow&quot;:&quot;vertical&quot;,&quot;curved&quot;:0,&quot;rounded&quot;:0};" parent="2" vertex="1"><mxGeometry x="30" y="100" width="10" height="90" as="geometry"/></mxCell><mxCell id="36" value="&lt;span style=&quot;font-size: 9px;&quot;&gt;TruckDeliveryDatesDAO&lt;/span&gt;" style="shape=umlLifeline;perimeter=lifelinePerimeter;whiteSpace=wrap;html=1;container=0;dropTarget=0;collapsible=0;recursiveResize=0;outlineConnect=0;portConstraint=eastwest;newEdgeStyle={&quot;edgeStyle&quot;:&quot;elbowEdgeStyle&quot;,&quot;elbow&quot;:&quot;vertical&quot;,&quot;curved&quot;:0,&quot;rounded&quot;:0};" parent="1" vertex="1"><mxGeometry x="-570" y="10" width="100" height="1140" as="geometry"/></mxCell><mxCell id="37" value="" style="html=1;points=[];perimeter=orthogonalPerimeter;outlineConnect=0;targetShapes=umlLifeline;portConstraint=eastwest;newEdgeStyle={&quot;edgeStyle&quot;:&quot;elbowEdgeStyle&quot;,&quot;elbow&quot;:&quot;vertical&quot;,&quot;curved&quot;:0,&quot;rounded&quot;:0};" parent="36" vertex="1"><mxGeometry x="45" y="103" width="10" height="16" as="geometry"/></mxCell><mxCell id="45" value="&lt;span style=&quot;font-size: 9px;&quot;&gt;DriverDeliveryDatesDAO&lt;/span&gt;" style="shape=umlLifeline;perimeter=lifelinePerimeter;whiteSpace=wrap;html=1;container=0;dropTarget=0;collapsible=0;recursiveResize=0;outlineConnect=0;portConstraint=eastwest;newEdgeStyle={&quot;edgeStyle&quot;:&quot;elbowEdgeStyle&quot;,&quot;elbow&quot;:&quot;vertical&quot;,&quot;curved&quot;:0,&quot;rounded&quot;:0};" parent="1" vertex="1"><mxGeometry x="-463" y="10" width="100" height="1140" as="geometry"/></mxCell><mxCell id="10" value="&lt;font style=&quot;font-size: 10px;&quot;&gt;StopDAO&lt;/font&gt;" style="shape=umlLifeline;perimeter=lifelinePerimeter;whiteSpace=wrap;html=1;container=0;dropTarget=0;collapsible=0;recursiveResize=0;outlineConnect=0;portConstraint=eastwest;newEdgeStyle={&quot;edgeStyle&quot;:&quot;elbowEdgeStyle&quot;,&quot;elbow&quot;:&quot;vertical&quot;,&quot;curved&quot;:0,&quot;rounded&quot;:0};" parent="1" vertex="1"><mxGeometry x="-273" y="10" width="70" height="1150" as="geometry"/></mxCell><mxCell id="29" value="&lt;font style=&quot;font-size: 10px;&quot;&gt;ItemDeliveryDAO&lt;/font&gt;" style="shape=umlLifeline;perimeter=lifelinePerimeter;whiteSpace=wrap;html=1;container=0;dropTarget=0;collapsible=0;recursiveResize=0;outlineConnect=0;portConstraint=eastwest;newEdgeStyle={&quot;edgeStyle&quot;:&quot;elbowEdgeStyle&quot;,&quot;elbow&quot;:&quot;vertical&quot;,&quot;curved&quot;:0,&quot;rounded&quot;:0};" parent="1" vertex="1"><mxGeometry x="-196" y="10" width="80" height="1140" as="geometry"/></mxCell><mxCell id="30" value="" style="html=1;points=[];perimeter=orthogonalPerimeter;outlineConnect=0;targetShapes=umlLifeline;portConstraint=eastwest;newEdgeStyle={&quot;edgeStyle&quot;:&quot;elbowEdgeStyle&quot;,&quot;elbow&quot;:&quot;vertical&quot;,&quot;curved&quot;:0,&quot;rounded&quot;:0};" parent="29" vertex="1"><mxGeometry x="35" y="635" width="10" height="20" as="geometry"/></mxCell><mxCell id="64" value="&lt;font style=&quot;font-size: 10px;&quot;&gt;ItemOrderDAO&lt;/font&gt;" style="shape=umlLifeline;perimeter=lifelinePerimeter;whiteSpace=wrap;html=1;container=0;dropTarget=0;collapsible=0;recursiveResize=0;outlineConnect=0;portConstraint=eastwest;newEdgeStyle={&quot;edgeStyle&quot;:&quot;elbowEdgeStyle&quot;,&quot;elbow&quot;:&quot;vertical&quot;,&quot;curved&quot;:0,&quot;rounded&quot;:0};" parent="1" vertex="1"><mxGeometry x="-110" y="10" width="80" height="1150" as="geometry"/></mxCell><mxCell id="65" value="" style="html=1;points=[];perimeter=orthogonalPerimeter;outlineConnect=0;targetShapes=umlLifeline;portConstraint=eastwest;newEdgeStyle={&quot;edgeStyle&quot;:&quot;elbowEdgeStyle&quot;,&quot;elbow&quot;:&quot;vertical&quot;,&quot;curved&quot;:0,&quot;rounded&quot;:0};" parent="64" vertex="1"><mxGeometry x="35" y="699.44" width="10" height="20" as="geometry"/></mxCell><mxCell id="72" value="" style="html=1;points=[];perimeter=orthogonalPerimeter;outlineConnect=0;targetShapes=umlLifeline;portConstraint=eastwest;newEdgeStyle={&quot;edgeStyle&quot;:&quot;elbowEdgeStyle&quot;,&quot;elbow&quot;:&quot;vertical&quot;,&quot;curved&quot;:0,&quot;rounded&quot;:0};" parent="1" vertex="1"><mxGeometry x="-75" y="779.44" width="10" height="20" as="geometry"/></mxCell><mxCell id="84" value="" style="html=1;points=[];perimeter=orthogonalPerimeter;outlineConnect=0;targetShapes=umlLifeline;portConstraint=eastwest;newEdgeStyle={&quot;edgeStyle&quot;:&quot;elbowEdgeStyle&quot;,&quot;elbow&quot;:&quot;vertical&quot;,&quot;curved&quot;:0,&quot;rounded&quot;:0};" parent="1" vertex="1"><mxGeometry x="-75" y="849.44" width="10" height="20" as="geometry"/></mxCell><mxCell id="40" value="" style="html=1;points=[];perimeter=orthogonalPerimeter;outlineConnect=0;targetShapes=umlLifeline;portConstraint=eastwest;newEdgeStyle={&quot;edgeStyle&quot;:&quot;elbowEdgeStyle&quot;,&quot;elbow&quot;:&quot;vertical&quot;,&quot;curved&quot;:0,&quot;rounded&quot;:0};" parent="1" vertex="1"><mxGeometry x="-525" y="170" width="10" height="16" as="geometry"/></mxCell><mxCell id="47" value="" style="html=1;points=[];perimeter=orthogonalPerimeter;outlineConnect=0;targetShapes=umlLifeline;portConstraint=eastwest;newEdgeStyle={&quot;edgeStyle&quot;:&quot;elbowEdgeStyle&quot;,&quot;elbow&quot;:&quot;vertical&quot;,&quot;curved&quot;:0,&quot;rounded&quot;:0};" parent="1" vertex="1"><mxGeometry x="-418" y="222" width="10" height="16" as="geometry"/></mxCell><mxCell id="50" value="" style="html=1;points=[];perimeter=orthogonalPerimeter;outlineConnect=0;targetShapes=umlLifeline;portConstraint=eastwest;newEdgeStyle={&quot;edgeStyle&quot;:&quot;elbowEdgeStyle&quot;,&quot;elbow&quot;:&quot;vertical&quot;,&quot;curved&quot;:0,&quot;rounded&quot;:0};" parent="1" vertex="1"><mxGeometry x="-418" y="279" width="10" height="16" as="geometry"/></mxCell><mxCell id="57" value="" style="html=1;points=[];perimeter=orthogonalPerimeter;outlineConnect=0;targetShapes=umlLifeline;portConstraint=eastwest;newEdgeStyle={&quot;edgeStyle&quot;:&quot;elbowEdgeStyle&quot;,&quot;elbow&quot;:&quot;vertical&quot;,&quot;curved&quot;:0,&quot;rounded&quot;:0};" parent="1" vertex="1"><mxGeometry x="-243" y="338" width="10" height="27" as="geometry"/></mxCell><mxCell id="58" value="" style="html=1;points=[];perimeter=orthogonalPerimeter;outlineConnect=0;targetShapes=umlLifeline;portConstraint=eastwest;newEdgeStyle={&quot;edgeStyle&quot;:&quot;elbowEdgeStyle&quot;,&quot;elbow&quot;:&quot;vertical&quot;,&quot;curved&quot;:0,&quot;rounded&quot;:0};" parent="1" vertex="1"><mxGeometry x="-244" y="404" width="10" height="27" as="geometry"/></mxCell><mxCell id="62" value="" style="html=1;points=[];perimeter=orthogonalPerimeter;outlineConnect=0;targetShapes=umlLifeline;portConstraint=eastwest;newEdgeStyle={&quot;edgeStyle&quot;:&quot;elbowEdgeStyle&quot;,&quot;elbow&quot;:&quot;vertical&quot;,&quot;curved&quot;:0,&quot;rounded&quot;:0};" parent="1" vertex="1"><mxGeometry x="-243" y="521" width="10" height="27" as="geometry"/></mxCell><mxCell id="61" value="" style="html=1;points=[];perimeter=orthogonalPerimeter;outlineConnect=0;targetShapes=umlLifeline;portConstraint=eastwest;newEdgeStyle={&quot;edgeStyle&quot;:&quot;elbowEdgeStyle&quot;,&quot;elbow&quot;:&quot;vertical&quot;,&quot;curved&quot;:0,&quot;rounded&quot;:0};" parent="1" vertex="1"><mxGeometry x="-644" y="513.56" width="10" height="40.44" as="geometry"/></mxCell><mxCell id="63" value="" style="html=1;points=[];perimeter=orthogonalPerimeter;outlineConnect=0;targetShapes=umlLifeline;portConstraint=eastwest;newEdgeStyle={&quot;edgeStyle&quot;:&quot;elbowEdgeStyle&quot;,&quot;elbow&quot;:&quot;vertical&quot;,&quot;curved&quot;:0,&quot;rounded&quot;:0};" parent="1" vertex="1"><mxGeometry x="-644" y="637.28" width="10" height="35.72" as="geometry"/></mxCell><mxCell id="67" value="" style="html=1;points=[];perimeter=orthogonalPerimeter;outlineConnect=0;targetShapes=umlLifeline;portConstraint=eastwest;newEdgeStyle={&quot;edgeStyle&quot;:&quot;elbowEdgeStyle&quot;,&quot;elbow&quot;:&quot;vertical&quot;,&quot;curved&quot;:0,&quot;rounded&quot;:0};" parent="1" vertex="1"><mxGeometry x="-644" y="700" width="10" height="40.44" as="geometry"/></mxCell><mxCell id="73" value="" style="html=1;points=[];perimeter=orthogonalPerimeter;outlineConnect=0;targetShapes=umlLifeline;portConstraint=eastwest;newEdgeStyle={&quot;edgeStyle&quot;:&quot;elbowEdgeStyle&quot;,&quot;elbow&quot;:&quot;vertical&quot;,&quot;curved&quot;:0,&quot;rounded&quot;:0};" parent="1" vertex="1"><mxGeometry x="-644" y="770" width="10" height="40.44" as="geometry"/></mxCell><mxCell id="85" value="" style="html=1;points=[];perimeter=orthogonalPerimeter;outlineConnect=0;targetShapes=umlLifeline;portConstraint=eastwest;newEdgeStyle={&quot;edgeStyle&quot;:&quot;elbowEdgeStyle&quot;,&quot;elbow&quot;:&quot;vertical&quot;,&quot;curved&quot;:0,&quot;rounded&quot;:0};" parent="1" vertex="1"><mxGeometry x="-644" y="840" width="10" height="40.44" as="geometry"/></mxCell><mxCell id="53" value="" style="html=1;points=[];perimeter=orthogonalPerimeter;outlineConnect=0;targetShapes=umlLifeline;portConstraint=eastwest;newEdgeStyle={&quot;edgeStyle&quot;:&quot;elbowEdgeStyle&quot;,&quot;elbow&quot;:&quot;vertical&quot;,&quot;curved&quot;:0,&quot;rounded&quot;:0};" parent="1" vertex="1"><mxGeometry x="-644" y="210" width="10" height="90" as="geometry"/></mxCell><mxCell id="56" value="" style="html=1;points=[];perimeter=orthogonalPerimeter;outlineConnect=0;targetShapes=umlLifeline;portConstraint=eastwest;newEdgeStyle={&quot;edgeStyle&quot;:&quot;elbowEdgeStyle&quot;,&quot;elbow&quot;:&quot;vertical&quot;,&quot;curved&quot;:0,&quot;rounded&quot;:0};" parent="1" vertex="1"><mxGeometry x="-644" y="328" width="10" height="45" as="geometry"/></mxCell><mxCell id="59" value="" style="html=1;points=[];perimeter=orthogonalPerimeter;outlineConnect=0;targetShapes=umlLifeline;portConstraint=eastwest;newEdgeStyle={&quot;edgeStyle&quot;:&quot;elbowEdgeStyle&quot;,&quot;elbow&quot;:&quot;vertical&quot;,&quot;curved&quot;:0,&quot;rounded&quot;:0};" parent="1" vertex="1"><mxGeometry x="-644" y="400" width="10" height="43" as="geometry"/></mxCell><mxCell id="-gW6fh7wos3bzYMdUPMY-119" value="&lt;span style=&quot;font-size: 9px;&quot;&gt;TruckDeliveryDatesDAO&lt;/span&gt;" style="shape=umlLifeline;perimeter=lifelinePerimeter;whiteSpace=wrap;html=1;container=0;dropTarget=0;collapsible=0;recursiveResize=0;outlineConnect=0;portConstraint=eastwest;newEdgeStyle={&quot;edgeStyle&quot;:&quot;elbowEdgeStyle&quot;,&quot;elbow&quot;:&quot;vertical&quot;,&quot;curved&quot;:0,&quot;rounded&quot;:0};" parent="1" vertex="1"><mxGeometry x="-570" y="1197" width="100" height="423" as="geometry"/></mxCell><mxCell id="-gW6fh7wos3bzYMdUPMY-121" value="&lt;span style=&quot;font-size: 9px;&quot;&gt;DriverDeliveryDatesDAO&lt;/span&gt;" style="shape=umlLifeline;perimeter=lifelinePerimeter;whiteSpace=wrap;html=1;container=0;dropTarget=0;collapsible=0;recursiveResize=0;outlineConnect=0;portConstraint=eastwest;newEdgeStyle={&quot;edgeStyle&quot;:&quot;elbowEdgeStyle&quot;,&quot;elbow&quot;:&quot;vertical&quot;,&quot;curved&quot;:0,&quot;rounded&quot;:0};" parent="1" vertex="1"><mxGeometry x="-463" y="1197" width="100" height="423" as="geometry"/></mxCell><mxCell id="-gW6fh7wos3bzYMdUPMY-122" value="&lt;font style=&quot;font-size: 10px;&quot;&gt;StopDAO&lt;/font&gt;" style="shape=umlLifeline;perimeter=lifelinePerimeter;whiteSpace=wrap;html=1;container=0;dropTarget=0;collapsible=0;recursiveResize=0;outlineConnect=0;portConstraint=eastwest;newEdgeStyle={&quot;edgeStyle&quot;:&quot;elbowEdgeStyle&quot;,&quot;elbow&quot;:&quot;vertical&quot;,&quot;curved&quot;:0,&quot;rounded&quot;:0};" parent="1" vertex="1"><mxGeometry x="-274" y="1197" width="70" height="423" as="geometry"/></mxCell><mxCell id="-gW6fh7wos3bzYMdUPMY-123" value="&lt;font style=&quot;font-size: 10px;&quot;&gt;ItemDeliveryDAO&lt;/font&gt;" style="shape=umlLifeline;perimeter=lifelinePerimeter;whiteSpace=wrap;html=1;container=0;dropTarget=0;collapsible=0;recursiveResize=0;outlineConnect=0;portConstraint=eastwest;newEdgeStyle={&quot;edgeStyle&quot;:&quot;elbowEdgeStyle&quot;,&quot;elbow&quot;:&quot;vertical&quot;,&quot;curved&quot;:0,&quot;rounded&quot;:0};" parent="1" vertex="1"><mxGeometry x="-195" y="1197" width="80" height="423" as="geometry"/></mxCell><mxCell id="-gW6fh7wos3bzYMdUPMY-125" value="&lt;font style=&quot;font-size: 10px;&quot;&gt;ItemOrderDAO&lt;/font&gt;" style="shape=umlLifeline;perimeter=lifelinePerimeter;whiteSpace=wrap;html=1;container=0;dropTarget=0;collapsible=0;recursiveResize=0;outlineConnect=0;portConstraint=eastwest;newEdgeStyle={&quot;edgeStyle&quot;:&quot;elbowEdgeStyle&quot;,&quot;elbow&quot;:&quot;vertical&quot;,&quot;curved&quot;:0,&quot;rounded&quot;:0};" parent="1" vertex="1"><mxGeometry x="-109" y="1197" width="80" height="423" as="geometry"/></mxCell><mxCell id="-gW6fh7wos3bzYMdUPMY-116" value="&lt;font style=&quot;font-size: 10px;&quot;&gt;DALFacade&lt;/font&gt;" style="shape=umlLifeline;perimeter=lifelinePerimeter;whiteSpace=wrap;html=1;container=0;dropTarget=0;collapsible=0;recursiveResize=0;outlineConnect=0;portConstraint=eastwest;newEdgeStyle={&quot;edgeStyle&quot;:&quot;elbowEdgeStyle&quot;,&quot;elbow&quot;:&quot;vertical&quot;,&quot;curved&quot;:0,&quot;rounded&quot;:0};" parent="1" vertex="1"><mxGeometry x="-673" y="1197" width="70" height="423" as="geometry"/></mxCell><mxCell id="98" value="" style="html=1;points=[];perimeter=orthogonalPerimeter;outlineConnect=0;targetShapes=umlLifeline;portConstraint=eastwest;newEdgeStyle={&quot;edgeStyle&quot;:&quot;elbowEdgeStyle&quot;,&quot;elbow&quot;:&quot;vertical&quot;,&quot;curved&quot;:0,&quot;rounded&quot;:0};" parent="1" vertex="1"><mxGeometry x="-74" y="1390.44" width="10" height="20" as="geometry"/></mxCell><mxCell id="105" value="" style="html=1;points=[];perimeter=orthogonalPerimeter;outlineConnect=0;targetShapes=umlLifeline;portConstraint=eastwest;newEdgeStyle={&quot;edgeStyle&quot;:&quot;elbowEdgeStyle&quot;,&quot;elbow&quot;:&quot;vertical&quot;,&quot;curved&quot;:0,&quot;rounded&quot;:0};" parent="1" vertex="1"><mxGeometry x="-74" y="1460.44" width="10" height="20" as="geometry"/></mxCell><mxCell id="111" value="" style="html=1;points=[];perimeter=orthogonalPerimeter;outlineConnect=0;targetShapes=umlLifeline;portConstraint=eastwest;newEdgeStyle={&quot;edgeStyle&quot;:&quot;elbowEdgeStyle&quot;,&quot;elbow&quot;:&quot;vertical&quot;,&quot;curved&quot;:0,&quot;rounded&quot;:0};" parent="1" vertex="1"><mxGeometry x="-74" y="1530.44" width="10" height="20" as="geometry"/></mxCell><mxCell id="93" value="" style="html=1;points=[];perimeter=orthogonalPerimeter;outlineConnect=0;targetShapes=umlLifeline;portConstraint=eastwest;newEdgeStyle={&quot;edgeStyle&quot;:&quot;elbowEdgeStyle&quot;,&quot;elbow&quot;:&quot;vertical&quot;,&quot;curved&quot;:0,&quot;rounded&quot;:0};" parent="1" vertex="1"><mxGeometry x="-160" y="1326" width="10" height="20" as="geometry"/></mxCell><mxCell id="97" value="" style="html=1;points=[];perimeter=orthogonalPerimeter;outlineConnect=0;targetShapes=umlLifeline;portConstraint=eastwest;newEdgeStyle={&quot;edgeStyle&quot;:&quot;elbowEdgeStyle&quot;,&quot;elbow&quot;:&quot;vertical&quot;,&quot;curved&quot;:0,&quot;rounded&quot;:0};" parent="1" vertex="1"><mxGeometry x="-643" y="1318.28" width="10" height="35.72" as="geometry"/></mxCell><mxCell id="100" value="" style="html=1;points=[];perimeter=orthogonalPerimeter;outlineConnect=0;targetShapes=umlLifeline;portConstraint=eastwest;newEdgeStyle={&quot;edgeStyle&quot;:&quot;elbowEdgeStyle&quot;,&quot;elbow&quot;:&quot;vertical&quot;,&quot;curved&quot;:0,&quot;rounded&quot;:0};" parent="1" vertex="1"><mxGeometry x="-643" y="1381" width="10" height="40.44" as="geometry"/></mxCell><mxCell id="106" value="" style="html=1;points=[];perimeter=orthogonalPerimeter;outlineConnect=0;targetShapes=umlLifeline;portConstraint=eastwest;newEdgeStyle={&quot;edgeStyle&quot;:&quot;elbowEdgeStyle&quot;,&quot;elbow&quot;:&quot;vertical&quot;,&quot;curved&quot;:0,&quot;rounded&quot;:0};" parent="1" vertex="1"><mxGeometry x="-643" y="1451" width="10" height="40.44" as="geometry"/></mxCell><mxCell id="112" value="" style="html=1;points=[];perimeter=orthogonalPerimeter;outlineConnect=0;targetShapes=umlLifeline;portConstraint=eastwest;newEdgeStyle={&quot;edgeStyle&quot;:&quot;elbowEdgeStyle&quot;,&quot;elbow&quot;:&quot;vertical&quot;,&quot;curved&quot;:0,&quot;rounded&quot;:0};" parent="1" vertex="1"><mxGeometry x="-643" y="1521" width="10" height="40.44" as="geometry"/></mxCell><mxCell id="-gW6fh7wos3bzYMdUPMY-128" value="&lt;u&gt;&lt;b&gt;Approve delivery DAL calls sequence diagram part 1&lt;/b&gt;&lt;/u&gt;" style="text;html=1;align=center;verticalAlign=middle;whiteSpace=wrap;rounded=0;" parent="1" vertex="1"><mxGeometry x="-376" y="70" width="103" height="30" as="geometry"/></mxCell><mxCell id="-gW6fh7wos3bzYMdUPMY-129" value="&lt;u&gt;&lt;b&gt;Approve delivery DAL calls sequence diagram part 2&lt;/b&gt;&lt;/u&gt;" style="text;html=1;align=center;verticalAlign=middle;whiteSpace=wrap;rounded=0;" parent="1" vertex="1"><mxGeometry x="-370" y="1190" width="103" height="30" as="geometry"/></mxCell></root></mxGraphModel></diagram></mxfile>